<svg width="38" height="38" viewBox="0 0 38 38" fill="none" xmlns="http://www.w3.org/2000/svg">
<rect width="38" height="38" fill="white"/>
<path d="M17.125 22.75V15.25" stroke="#D33449" stroke-width="2" stroke-linecap="round" stroke-linejoin="round"/>
<path d="M17.125 15.25H19C19.4973 15.25 19.9742 15.4475 20.3258 15.7992C20.6775 16.1508 20.875 16.6277 20.875 17.125C20.875 17.6223 20.6775 18.0992 20.3258 18.4508C19.9742 18.8025 19.4973 19 19 19H17.125" stroke="#D33449" stroke-width="2" stroke-linecap="round" stroke-linejoin="round"/>
<path d="M17.125 19H19C19.4973 19 19.9742 19.1975 20.3258 19.5492C20.6775 19.9008 20.875 20.3777 20.875 20.875C20.875 21.3723 20.6775 21.8492 20.3258 22.2008C19.9742 22.5525 19.4973 22.75 19 22.75H17.125" stroke="#D33449" stroke-width="2" stroke-linecap="round" stroke-linejoin="round"/>
<path d="M9.625 22.75V17.125C9.625 16.6277 9.82254 16.1508 10.1742 15.7992C10.5258 15.4475 11.0027 15.25 11.5 15.25C11.9973 15.25 12.4742 15.4475 12.8258 15.7992C13.1775 16.1508 13.375 16.6277 13.375 17.125V22.75" stroke="#D33449" stroke-width="2" stroke-linecap="round" stroke-linejoin="round"/>
<path d="M9.625 19H13.375" stroke="#D33449" stroke-width="2" stroke-linecap="round" stroke-linejoin="round"/>
<path d="M4 19C4 22.9782 5.58035 26.7936 8.3934 29.6066C11.2064 32.4196 15.0218 34 19 34C22.9782 34 26.7936 32.4196 29.6066 29.6066C32.4196 26.7936 34 22.9782 34 19C34 15.0218 32.4196 11.2064 29.6066 8.3934C26.7936 5.58035 22.9782 4 19 4C15.0218 4 11.2064 5.58035 8.3934 8.3934C5.58035 11.2064 4 15.0218 4 19V19Z" stroke="#D33449" stroke-width="3" stroke-linecap="round" stroke-linejoin="round"/>
<path d="M24.625 19H28.375" stroke="#D33449" stroke-width="2" stroke-linecap="round" stroke-linejoin="round"/>
</svg>
