<svg width="38" height="38" viewBox="0 0 38 38" fill="none" xmlns="http://www.w3.org/2000/svg">
<rect width="38" height="38" fill="white"/>
<path d="M25 14V10" stroke="#D33449" stroke-linecap="round" stroke-linejoin="round"/>
<path d="M25 10H26C26.2652 10 26.5196 10.1054 26.7071 10.2929C26.8946 10.4804 27 10.7348 27 11C27 11.2652 26.8946 11.5196 26.7071 11.7071C26.5196 11.8946 26.2652 12 26 12H25" stroke="#D33449" stroke-linecap="round" stroke-linejoin="round"/>
<path d="M25 12H26C26.2652 12 26.5196 12.1054 26.7071 12.2929C26.8946 12.4804 27 12.7348 27 13C27 13.2652 26.8946 13.5196 26.7071 13.7071C26.5196 13.8946 26.2652 14 26 14H25" stroke="#D33449" stroke-linecap="round" stroke-linejoin="round"/>
<path d="M21 14V11C21 10.7348 21.1054 10.4804 21.2929 10.2929C21.4804 10.1054 21.7348 10 22 10C22.2652 10 22.5196 10.1054 22.7071 10.2929C22.8946 10.4804 23 10.7348 23 11V14" stroke="#D33449" stroke-linecap="round" stroke-linejoin="round"/>
<path d="M21 12H23" stroke="#D33449" stroke-linecap="round" stroke-linejoin="round"/>
<path d="M13 30C11.6739 30 10.4021 29.4732 9.46447 28.5355C8.52678 27.5979 8 26.3261 8 25" stroke="#D33449" stroke-width="2" stroke-linecap="round" stroke-linejoin="round"/>
<path d="M22 25C22 27.3869 21.0518 29.6761 19.364 31.3639C17.6761 33.0518 15.3869 34 13 34C10.6131 34 8.32387 33.0518 6.63604 31.3639C4.94821 29.6761 4 27.3869 4 25C4 18.5053 9.93333 8.71731 12.164 5.26664C12.2537 5.12625 12.3773 5.0107 12.5234 4.93065C12.6695 4.85061 12.8334 4.80865 13 4.80865C13.1666 4.80865 13.3305 4.85061 13.4766 4.93065C13.6227 5.0107 13.7463 5.12625 13.836 5.26664" stroke="#D33449" stroke-width="2" stroke-linecap="round" stroke-linejoin="round"/>
<path d="M18 12C18 14.1217 18.8429 16.1566 20.3431 17.6569C21.8434 19.1571 23.8783 20 26 20C28.1217 20 30.1566 19.1571 31.6569 17.6569C33.1571 16.1566 34 14.1217 34 12C34 9.87827 33.1571 7.84344 31.6569 6.34315C30.1566 4.84285 28.1217 4 26 4C23.8783 4 21.8434 4.84285 20.3431 6.34315C18.8429 7.84344 18 9.87827 18 12V12Z" stroke="#D33449" stroke-width="2" stroke-linecap="round" stroke-linejoin="round"/>
<path d="M29 12H31" stroke="#D33449" stroke-width="0.5" stroke-linecap="round" stroke-linejoin="round"/>
<path d="M30 11L30 13" stroke="#D33449" stroke-width="0.5" stroke-linecap="round" stroke-linejoin="round"/>
</svg>
