<svg width="38" height="38" viewBox="0 0 38 38" fill="none" xmlns="http://www.w3.org/2000/svg">
<rect width="38" height="38" fill="white"/>
<path d="M20.875 19H26.5" stroke="#D33449" stroke-width="2" stroke-linecap="round" stroke-linejoin="round"/>
<path d="M4 19C4 22.9782 5.58035 26.7936 8.3934 29.6066C11.2064 32.4196 15.0218 34 19 34C22.9782 34 26.7936 32.4196 29.6066 29.6066C32.4196 26.7936 34 22.9782 34 19C34 15.0218 32.4196 11.2064 29.6066 8.3934C26.7936 5.58035 22.9782 4 19 4C15.0218 4 11.2064 5.58035 8.3934 8.3934C5.58035 11.2064 4 15.0218 4 19V19Z" stroke="#D33449" stroke-width="3" stroke-linecap="round" stroke-linejoin="round"/>
<path d="M11.5 24.625V13.375" stroke="#D33449" stroke-width="2" stroke-linecap="round" stroke-linejoin="round"/>
<path d="M11.5 13.375H14.3125C15.0584 13.375 15.7738 13.6713 16.3012 14.1988C16.8287 14.7262 17.125 15.4416 17.125 16.1875C17.125 16.9334 16.8287 17.6488 16.3012 18.1762C15.7738 18.7037 15.0584 19 14.3125 19H11.5" stroke="#D33449" stroke-width="2" stroke-linecap="round" stroke-linejoin="round"/>
<path d="M11.5 19H14.3125C15.0584 19 15.7738 19.2963 16.3012 19.8238C16.8287 20.3512 17.125 21.0666 17.125 21.8125C17.125 22.5584 16.8287 23.2738 16.3012 23.8012C15.7738 24.3287 15.0584 24.625 14.3125 24.625H11.5" stroke="#D33449" stroke-width="2" stroke-linecap="round" stroke-linejoin="round"/>
</svg>
