<svg width="38" height="38" viewBox="0 0 38 38" fill="none" xmlns="http://www.w3.org/2000/svg">
<rect width="38" height="38" fill="white"/>
<path d="M13 30C11.6739 30 10.4021 29.4732 9.46447 28.5355C8.52678 27.5979 8 26.3261 8 25" stroke="#D33449" stroke-width="2" stroke-linecap="round" stroke-linejoin="round"/>
<path d="M27 12H30" stroke="#D33449" stroke-linecap="round" stroke-linejoin="round"/>
<path d="M28.5 10.5L28.5 13.5" stroke="#D33449" stroke-linecap="round" stroke-linejoin="round"/>
<path d="M22 25C22 27.3869 21.0518 29.6761 19.364 31.3639C17.6761 33.0518 15.3869 34 13 34C10.6131 34 8.32387 33.0518 6.63604 31.3639C4.94821 29.6761 4 27.3869 4 25C4 18.5053 9.93333 8.71731 12.164 5.26664C12.2537 5.12625 12.3773 5.0107 12.5234 4.93065C12.6695 4.85061 12.8334 4.80865 13 4.80865C13.1666 4.80865 13.3305 4.85061 13.4766 4.93065C13.6227 5.0107 13.7463 5.12625 13.836 5.26664" stroke="#D33449" stroke-width="2" stroke-linecap="round" stroke-linejoin="round"/>
<path d="M18 12C18 14.1217 18.8429 16.1566 20.3431 17.6569C21.8434 19.1571 23.8783 20 26 20C28.1217 20 30.1566 19.1571 31.6569 17.6569C33.1571 16.1566 34 14.1217 34 12C34 9.87827 33.1571 7.84344 31.6569 6.34315C30.1566 4.84285 28.1217 4 26 4C23.8783 4 21.8434 4.84285 20.3431 6.34315C18.8429 7.84344 18 9.87827 18 12V12Z" stroke="#D33449" stroke-width="2" stroke-linecap="round" stroke-linejoin="round"/>
<path d="M22 15V9" stroke="#D33449" stroke-linecap="round" stroke-linejoin="round"/>
<path d="M22 9H23.5C23.8978 9 24.2794 9.15804 24.5607 9.43934C24.842 9.72064 25 10.1022 25 10.5C25 10.8978 24.842 11.2794 24.5607 11.5607C24.2794 11.842 23.8978 12 23.5 12H22" stroke="#D33449" stroke-linecap="round" stroke-linejoin="round"/>
<path d="M22 12H23.5C23.8978 12 24.2794 12.158 24.5607 12.4393C24.842 12.7206 25 13.1022 25 13.5C25 13.8978 24.842 14.2794 24.5607 14.5607C24.2794 14.842 23.8978 15 23.5 15H22" stroke="#D33449" stroke-linecap="round" stroke-linejoin="round"/>
</svg>
