<svg width="38" height="38" viewBox="0 0 38 38" fill="none" xmlns="http://www.w3.org/2000/svg">
<rect width="38" height="38" fill="none"/>
<path d="M20.875 19H26.5" stroke="#D33449" stroke-width="2" stroke-linecap="round" stroke-linejoin="round"/>
<path d="M4 19C4 22.9782 5.58035 26.7936 8.3934 29.6066C11.2064 32.4196 15.0218 34 19 34C22.9782 34 26.7936 32.4196 29.6066 29.6066C32.4196 26.7936 34 22.9782 34 19C34 15.0218 32.4196 11.2064 29.6066 8.3934C26.7936 5.58035 22.9782 4 19 4C15.0218 4 11.2064 5.58035 8.3934 8.3934C5.58035 11.2064 4 15.0218 4 19V19Z" stroke="#D33449" stroke-width="3" stroke-linecap="round" stroke-linejoin="round"/>
<path d="M14.1786 13.375C13.4682 13.375 12.7869 13.6572 12.2845 14.1595C11.7822 14.6619 11.5 15.3432 11.5 16.0536V21.4107C11.5 22.1211 11.7822 22.8024 12.2845 23.3048C12.7869 23.8071 13.4682 24.0893 14.1786 24.0893C14.889 24.0893 15.5703 23.8071 16.0726 23.3048C16.5749 22.8024 16.8571 22.1211 16.8571 21.4107V16.0536C16.8571 15.3432 16.5749 14.6619 16.0726 14.1595C15.5703 13.6572 14.889 13.375 14.1786 13.375Z" stroke="#D33449" stroke-width="2" stroke-linecap="round" stroke-linejoin="round"/>
</svg>
