<svg width="80" height="80" viewBox="0 0 80 80" fill="none" xmlns="http://www.w3.org/2000/svg">
<rect width="80" height="80" fill="none"/>
<path d="M76.2699 49.314C75.9292 48.5539 75.4376 47.8708 74.8251 47.3063C74.2125 46.7417 73.4917 46.3075 72.7063 46.0298C71.9208 45.7522 71.0872 45.6369 70.256 45.6911C69.4247 45.7452 68.6131 45.9676 67.8703 46.3447L62.9549 48.7895L60.6882 43.7963C60.3474 43.0366 59.856 42.3539 59.2437 41.7897C58.6314 41.2254 57.9109 40.7913 57.1258 40.5137C56.3408 40.2361 55.5076 40.1207 54.6767 40.1746C53.8458 40.2284 53.0344 40.4504 52.2918 40.827C50.7613 41.601 49.588 42.9351 49.0157 44.5519C48.4434 46.1687 48.5161 47.9438 49.2189 49.5083L56.0189 64.3841C56.1225 64.6157 56.2721 64.8239 56.4586 64.996C56.6451 65.1681 56.8646 65.3005 57.1038 65.3853C57.3429 65.47 57.5968 65.5054 57.85 65.4891C58.1033 65.4729 58.3506 65.4054 58.577 65.2908L73.2164 57.9986C74.7431 57.22 75.9118 55.8839 76.4802 54.2671C77.0487 52.6503 76.9734 50.8768 76.2699 49.314V49.314Z" fill="#D33449" stroke="black" stroke-width="3" stroke-linecap="round" stroke-linejoin="round"/>
<path d="M32.1378 47.9314L9.05989 31.4203C7.0457 30.0425 5.51638 28.0655 4.68874 25.7697C3.86111 23.474 3.77718 20.976 4.44884 18.6298V18.6298C4.95555 16.8604 5.87539 15.2367 7.13258 13.8925C8.38977 12.5482 9.94834 11.5219 11.6799 10.898C13.4115 10.2741 15.2665 10.0706 17.0921 10.3041C18.9178 10.5376 20.6619 11.2015 22.1807 12.2411L25.9239 14.8024L28.482 11.0592C29.5214 9.53955 30.907 8.28869 32.5247 7.4097C34.1424 6.5307 35.9458 6.04873 37.7863 6.00351C39.6268 5.95828 41.4518 6.35111 43.1107 7.1496C44.7696 7.94808 46.215 9.12938 47.3277 10.5961V10.5961C48.8037 12.5416 49.6294 14.9025 49.6875 17.3438C49.7456 19.7851 49.0332 22.1826 47.6515 24.1961L32.1378 47.9314Z" fill="#3E465F" stroke="black" stroke-width="5" stroke-linecap="round" stroke-linejoin="round"/>
<path d="M73.2162 30.287C73.5383 30.287 73.8472 30.4149 74.0749 30.6426C74.3026 30.8704 74.4305 31.1792 74.4305 31.5013" stroke="#262541" stroke-width="5" stroke-linecap="round" stroke-linejoin="round"/>
<path d="M72.002 31.5013C72.002 31.1792 72.1299 30.8704 72.3576 30.6426C72.5853 30.4149 72.8942 30.287 73.2162 30.287" stroke="#262541" stroke-width="5" stroke-linecap="round" stroke-linejoin="round"/>
<path d="M73.2162 32.7156C72.8942 32.7156 72.5853 32.5876 72.3576 32.3599C72.1299 32.1322 72.002 31.8233 72.002 31.5013" stroke="#262541" stroke-width="5" stroke-linecap="round" stroke-linejoin="round"/>
<path d="M74.4305 31.5013C74.4305 31.8233 74.3026 32.1322 74.0749 32.3599C73.8472 32.5876 73.5383 32.7156 73.2162 32.7156" stroke="#262541" stroke-width="5" stroke-linecap="round" stroke-linejoin="round"/>
<path d="M10.0733 57.0013C10.3954 57.0013 10.7042 57.1292 10.9319 57.3569C11.1597 57.5847 11.2876 57.8935 11.2876 58.2156" stroke="#D33449" stroke-width="5" stroke-linecap="round" stroke-linejoin="round"/>
<path d="M8.85907 58.2156C8.85907 57.8935 8.987 57.5847 9.21473 57.3569C9.44245 57.1292 9.75131 57.0013 10.0734 57.0013" stroke="#D33449" stroke-width="5" stroke-linecap="round" stroke-linejoin="round"/>
<path d="M10.0734 59.4299C9.75131 59.4299 9.44245 59.3019 9.21473 59.0742C8.987 58.8465 8.85907 58.5376 8.85907 58.2156" stroke="#D33449" stroke-width="5" stroke-linecap="round" stroke-linejoin="round"/>
<path d="M11.2876 58.2156C11.2876 58.5376 11.1597 58.8465 10.9319 59.0742C10.7042 59.3019 10.3954 59.4299 10.0733 59.4299" stroke="#D33449" stroke-width="5" stroke-linecap="round" stroke-linejoin="round"/>
<path d="M35.5734 64.287V74.0013" stroke="#262541" stroke-width="5" stroke-linecap="round" stroke-linejoin="round"/>
<path d="M64.7162 6.00122V15.7155" stroke="#D33449" stroke-width="5" stroke-linecap="round" stroke-linejoin="round"/>
<path d="M69.5734 10.8584H59.8591" stroke="#D33449" stroke-width="5" stroke-linecap="round" stroke-linejoin="round"/>
</svg>
